<svg xmlns="http://www.w3.org/2000/svg" xmlns:xlink="http://www.w3.org/1999/xlink" width="32" height="32" viewBox="0 0 32 32">
  <defs>
    <clipPath id="clip-path">
      <rect id="사각형_1" data-name="사각형 1" width="32" height="31.999" transform="translate(0 0.001)" fill="none"/>
    </clipPath>
    <clipPath id="clip-SPRK_default_preset_name_custom_1">
      <rect width="32" height="32"/>
    </clipPath>
  </defs>
  <g id="SPRK_default_preset_name_custom_1" data-name="SPRK_default_preset_name_custom – 1" clip-path="url(#clip-SPRK_default_preset_name_custom_1)">
    <g id="그룹_2" data-name="그룹 2" transform="translate(0 -0.001)">
      <g id="그룹_1" data-name="그룹 1" clip-path="url(#clip-path)">
        <path id="패스_1" data-name="패스 1" d="M13.7,10.1A3.667,3.667,0,0,0,8.9,8.3a3.512,3.512,0,0,0-1.8,1.8L2.3,20.8a2.971,2.971,0,0,0,1,3.7,2.354,2.354,0,0,0,3.1-.8c.1-.1.1-.2.2-.3l1.8-4a2.226,2.226,0,0,1,3-1.1,1.981,1.981,0,0,1,1.1,1.1l1.9,4.1a2.226,2.226,0,0,0,3,1.1,1.981,1.981,0,0,0,1.1-1.1l1.9-4.1a2.226,2.226,0,0,1,3-1.1,1.981,1.981,0,0,1,1.1,1.1l1.8,4a2.144,2.144,0,0,0,2.9,1.3c.1,0,.2-.1.3-.2a2.971,2.971,0,0,0,1-3.7L25.8,10.1A3.667,3.667,0,0,0,21,8.3a3.512,3.512,0,0,0-1.8,1.8l-2.1,4.6a.687.687,0,0,1-.9.3c-.2,0-.3-.1-.4-.3Z" fill="#1d1d1d"/>
        <path id="패스_2" data-name="패스 2" d="M10,8c-3,.1-4.3,5.9-5.5,7.9,3.5-4.6,6.8-.4,8,3.5.2.4,1.9,4.5,2.2,4.6a2.241,2.241,0,0,0,3.2.3c.1-.1.2-.1.2-.2.8-1.5,1.6-3.1,2.3-4.8,1.2-3.9,4.5-8,8-3.4l-2.6-5.7a3.628,3.628,0,0,0-3.9-2.1,3.477,3.477,0,0,0-2,1c-.7.6-2.3,4.8-2.8,5.6a.687.687,0,0,1-.9.3.52.52,0,0,1-.4-.2c-.2-.4-2.2-4.9-2.4-5.2a3.657,3.657,0,0,0-3-1.6Z" fill="#387d46"/>
      </g>
    </g>
  </g>
</svg>
