<svg xmlns="http://www.w3.org/2000/svg" xmlns:xlink="http://www.w3.org/1999/xlink" width="32" height="32" viewBox="0 0 32 32">
  <defs>
    <style>
      .cls-1 {
        fill: #1ca755;
      }

      .cls-2 {
        fill: url(#linear-gradient);
      }

      .cls-3 {
        fill: none;
      }
    </style>
    <linearGradient id="linear-gradient" x1="3.96" y1="16.01" x2="28.04" y2="16.01" gradientUnits="userSpaceOnUse">
      <stop offset="0" stop-color="#76bc7a"/>
      <stop offset="1" stop-color="#1ca755"/>
    </linearGradient>
  </defs>
  <g id="Layer_2" data-name="Layer 2">
    <g id="Layer_1-2" data-name="Layer 1">
      <g>
        <g>
          <path class="cls-1" d="M13.26,9.73a3.67,3.67,0,0,0-6.67,0L1.7,20.39a2.94,2.94,0,0,0,1,3.71A2.29,2.29,0,0,0,6,22.93l1.83-4A2.3,2.3,0,0,1,12,19l1.89,4.11a2.3,2.3,0,0,0,4.18,0L20,19a2.3,2.3,0,0,1,4.19,0l1.83,4a2.29,2.29,0,0,0,3.27,1.17,3,3,0,0,0,1-3.72L25.41,9.73a3.67,3.67,0,0,0-6.67,0l-2.1,4.58a.71.71,0,0,1-1.28,0Z"/>
          <path class="cls-2" d="M25.41,9.74h0l-.1-.19,0,0-.11-.19,0,0-.11-.16,0,0-.12-.16,0,0-.14-.15,0,0-.14-.13,0,0-.15-.13,0,0-.16-.12h0l0,0-.11-.07,0,0h0l-.14-.09h0l-.07,0-.1,0-.07,0-.1,0-.08,0-.1,0-.09,0-.1,0-.08,0-.1,0-.09,0-.1,0h-.09l-.1,0h-1l-.11,0h-.07l-.14,0H21.2l-.19,0-.06,0-.12,0-.07,0-.11,0-.07,0-.1,0L20.4,8l-.1.05-.07,0-.09.05-.08,0L20,8.25l-.07.05-.09.07-.07.06-.08.06-.07.07-.08.07-.06.07-.08.08-.06.07-.07.08L19.18,9l-.07.09a.35.35,0,0,0-.05.08.61.61,0,0,0-.07.1l0,.07-.07.13a.21.21,0,0,1,0,.06l-.09.19h0l-2.1,4.58h0a.41.41,0,0,0-.05.09h0l-.06.07h0l-.06.07h0l-.07.06h0l-.07,0h0l-.08,0h0l-.08,0h-.2l-.08,0h-.09l0,0,0,0,0,0,0,0,0,0,0,0,0,0,0,0,0,0,0-.06,0,0-2.1-4.58-.09-.19v0l-.09-.15,0-.05L13,9.21l0-.05a.44.44,0,0,0-.08-.11l0-.05a.39.39,0,0,0-.08-.1l0-.05-.09-.1,0-.05-.09-.09,0,0-.1-.09,0,0-.11-.09,0,0L12,8.23h0L11.68,8h0L11.51,8l0,0-.12,0,0,0-.12,0-.06,0-.11,0-.06,0-.11,0h-.06l-.12,0H10.6l-.12,0H9.36l-.07,0-.11,0H9.11l-.1,0-.07,0-.1,0-.07,0-.11,0-.06,0h0l-.12.05h0L8.3,8l0,0-.15.08A3.65,3.65,0,0,0,6.59,9.74L4,15.47H4a3.67,3.67,0,0,1,6.56.23L12,18.92h0v0l1.89,4.11h0l.07.15,0,.05a.93.93,0,0,1,.05.1l0,.05.06.08.05.06,0,.07.05.06.07.06s0,0,0,0l.06.06.06.05.07,0,.06,0,.07,0,.06,0,.07.05.07,0,.07,0,.07,0,.08,0,.06,0,.08,0,.07,0,.09,0,.06,0h.15l.14,0h.56l.1,0h.06l.1,0,.06,0,.1,0,.06,0,.09,0,.06,0,.09-.05.05,0,.1-.05,0,0L17.4,24l0,0,.09-.07,0,0,.09-.08,0,0,.09-.1,0,0a.5.5,0,0,0,.08-.12l0,0a1.74,1.74,0,0,0,.18-.33L20,19v0h0l1.48-3.22A3.67,3.67,0,0,1,28,15.47h0Z"/>
        </g>
        <rect class="cls-3" width="32" height="32"/>
      </g>
    </g>
  </g>
</svg>
