<?xml version="1.0" encoding="utf-8"?>
<!-- Generator: Adobe Illustrator 26.2.0, SVG Export Plug-In . SVG Version: 6.00 Build 0)  -->
<svg version="1.1" id="Layer_1" xmlns="http://www.w3.org/2000/svg" xmlns:xlink="http://www.w3.org/1999/xlink" x="0px" y="0px"
	 viewBox="0 0 1944 203.7" style="enable-background:new 0 0 1944 203.7;" xml:space="preserve">
<style type="text/css">
	.st0{fill:#00AB55;}
	.st1{fill:url(#SVGID_1_);}
	.st2{fill:#05AD58;}
</style>
<g>
	<path class="st0" d="M127.8,25.9c-13.6-29.6-55.7-29.6-69.3,0L7.8,136.5c-6.4,14-1.6,31.3,10.7,38.6c12.3,7.3,27.5,1.9,34-12.1
		l19-41.3c8.5-18.6,34.9-18.6,43.5,0l19.6,42.6c8.5,18.6,34.9,18.6,43.5,0l19.6-42.7c8.5-18.6,34.9-18.6,43.5,0l19,41.3
		c6.4,14,21.6,19.4,34,12.1c12.3-7.3,17.1-24.6,10.7-38.6L253.8,25.9c-13.6-29.6-55.7-29.6-69.3,0l-21.8,47.5
		c-2.6,5.6-10.6,5.6-13.2,0L127.8,25.9z"/>
	<g>
		<linearGradient id="SVGID_1_" gradientUnits="userSpaceOnUse" x1="31.2308" y1="91.0552" x2="281.0554" y2="91.0552">
			<stop  offset="0" style="stop-color:#5BE584"/>
			<stop  offset="1" style="stop-color:#00AB55"/>
		</linearGradient>
		<path class="st1" d="M253.8,26c0,0,0-0.1-0.1-0.1c-0.3-0.7-0.6-1.3-1-2c-0.1-0.2-0.2-0.3-0.3-0.5c-0.3-0.6-0.7-1.3-1.1-1.9
			c-0.1-0.1-0.2-0.3-0.3-0.4c-0.4-0.6-0.7-1.1-1.1-1.7c0-0.1-0.1-0.1-0.1-0.2c-0.4-0.6-0.9-1.1-1.3-1.7c-0.1-0.1-0.2-0.3-0.3-0.4
			c-0.4-0.5-0.9-1.1-1.4-1.6c-0.1-0.1-0.2-0.2-0.3-0.3c-0.4-0.5-0.9-0.9-1.4-1.4c-0.1-0.1-0.1-0.1-0.2-0.2c-0.5-0.5-1-0.9-1.6-1.4
			c-0.1-0.1-0.2-0.2-0.4-0.3c-0.5-0.4-1.1-0.8-1.6-1.2c0,0-0.1,0-0.1-0.1c-0.1-0.1-0.2-0.1-0.2-0.2c-0.4-0.3-0.8-0.5-1.2-0.8
			c-0.1-0.1-0.2-0.1-0.3-0.2c-0.1,0-0.1-0.1-0.2-0.1c-0.5-0.3-1-0.6-1.5-0.9c0,0,0,0-0.1,0c-0.2-0.1-0.5-0.2-0.7-0.4
			c-0.4-0.2-0.7-0.4-1.1-0.6c-0.3-0.1-0.5-0.2-0.8-0.4c-0.3-0.2-0.7-0.3-1-0.5c-0.3-0.1-0.6-0.2-0.8-0.3c-0.3-0.1-0.7-0.3-1-0.4
			c-0.3-0.1-0.6-0.2-0.9-0.3c-0.3-0.1-0.7-0.2-1-0.3c-0.3-0.1-0.6-0.2-0.9-0.3c-0.3-0.1-0.7-0.2-1-0.3c-0.3-0.1-0.6-0.1-0.9-0.2
			c-0.3-0.1-0.7-0.2-1-0.2c-0.3-0.1-0.6-0.1-0.9-0.2c-0.3-0.1-0.7-0.1-1-0.2c-0.3,0-0.6-0.1-0.9-0.1c-0.3,0-0.7-0.1-1-0.1
			c-0.3,0-0.6-0.1-0.9-0.1c-0.4,0-0.7,0-1.1-0.1c-0.3,0-0.6,0-0.9,0c-0.4,0-0.7,0-1.1,0c-0.3,0-0.6,0-0.9,0c-0.4,0-0.7,0-1.1,0.1
			c-0.3,0-0.6,0-0.9,0.1c-0.4,0-0.7,0.1-1.1,0.1c-0.3,0-0.6,0.1-0.9,0.1c-0.4,0.1-0.8,0.1-1.2,0.2c-0.3,0-0.5,0.1-0.8,0.1
			c-0.5,0.1-0.9,0.2-1.4,0.3c-0.2,0-0.4,0.1-0.5,0.1c-0.6,0.2-1.3,0.3-1.9,0.5c-0.2,0.1-0.4,0.1-0.6,0.2c-0.4,0.1-0.8,0.3-1.3,0.4
			c-0.3,0.1-0.5,0.2-0.8,0.3c-0.4,0.1-0.7,0.3-1.1,0.4c-0.3,0.1-0.5,0.2-0.8,0.4c-0.3,0.2-0.7,0.3-1,0.5c-0.3,0.1-0.5,0.3-0.8,0.4
			c-0.3,0.2-0.7,0.3-1,0.5c-0.3,0.1-0.5,0.3-0.8,0.5c-0.3,0.2-0.6,0.4-0.9,0.6c-0.3,0.2-0.5,0.3-0.8,0.5c-0.3,0.2-0.6,0.4-0.9,0.6
			c-0.3,0.2-0.5,0.4-0.8,0.6c-0.3,0.2-0.6,0.4-0.9,0.7c-0.3,0.2-0.5,0.4-0.7,0.6c-0.3,0.2-0.6,0.5-0.8,0.7c-0.2,0.2-0.5,0.4-0.7,0.6
			c-0.3,0.3-0.5,0.5-0.8,0.8c-0.2,0.2-0.5,0.5-0.7,0.7c-0.3,0.3-0.5,0.6-0.8,0.8c-0.2,0.2-0.4,0.5-0.6,0.7c-0.3,0.3-0.5,0.6-0.8,0.9
			c-0.2,0.2-0.4,0.5-0.6,0.7c-0.2,0.3-0.5,0.7-0.7,1c-0.2,0.3-0.4,0.5-0.6,0.8c-0.2,0.4-0.5,0.7-0.7,1.1c-0.2,0.3-0.3,0.5-0.5,0.8
			c-0.2,0.4-0.5,0.8-0.7,1.3c-0.1,0.2-0.3,0.5-0.4,0.7c-0.3,0.6-0.7,1.3-1,2c0,0,0,0.1,0,0.1l-21.8,47.5c0,0,0,0,0,0
			c-0.1,0.3-0.3,0.6-0.5,0.9c0,0,0,0.1-0.1,0.1c-0.2,0.3-0.4,0.5-0.6,0.7c0,0-0.1,0.1-0.1,0.1c-0.2,0.2-0.4,0.4-0.6,0.6
			c0,0-0.1,0.1-0.1,0.1c-0.2,0.2-0.5,0.4-0.7,0.5c0,0-0.1,0-0.1,0c-0.3,0.2-0.5,0.3-0.8,0.4c0,0-0.1,0-0.1,0
			c-0.3,0.1-0.5,0.2-0.8,0.3c-0.1,0-0.1,0-0.2,0c-0.3,0.1-0.6,0.1-0.8,0.2c-0.1,0-0.1,0-0.2,0c-0.3,0-0.6,0.1-0.9,0.1
			c0,0-0.1,0-0.1,0c-0.3,0-0.6,0-0.9-0.1c0,0,0,0-0.1,0c-0.3,0-0.6-0.1-0.8-0.2c-0.1,0-0.2-0.1-0.3-0.1c-0.2-0.1-0.4-0.1-0.5-0.2
			c-0.1-0.1-0.3-0.1-0.4-0.2c-0.2-0.1-0.3-0.2-0.5-0.2c-0.1-0.1-0.3-0.2-0.4-0.2c-0.1-0.1-0.3-0.2-0.4-0.3c-0.1-0.1-0.2-0.2-0.4-0.3
			c-0.1-0.1-0.3-0.2-0.4-0.4c-0.1-0.1-0.2-0.2-0.3-0.3c-0.1-0.1-0.2-0.3-0.3-0.4c-0.1-0.1-0.2-0.3-0.3-0.4c-0.1-0.2-0.2-0.4-0.3-0.6
			c-0.1-0.1-0.1-0.2-0.2-0.3L127.8,26c-0.3-0.7-0.6-1.3-1-2c0-0.1-0.1-0.1-0.1-0.2c-0.3-0.5-0.6-1.1-0.9-1.6
			c-0.1-0.2-0.2-0.3-0.3-0.4c-0.3-0.4-0.5-0.9-0.8-1.3c-0.1-0.2-0.2-0.3-0.4-0.5c-0.3-0.4-0.5-0.8-0.8-1.2c-0.1-0.2-0.3-0.3-0.4-0.5
			c-0.3-0.4-0.6-0.7-0.8-1.1c-0.1-0.2-0.3-0.3-0.4-0.5c-0.3-0.3-0.6-0.7-0.9-1c-0.1-0.2-0.3-0.3-0.5-0.5c-0.3-0.3-0.6-0.6-0.9-0.9
			c-0.1-0.1-0.3-0.3-0.5-0.4c-0.3-0.3-0.7-0.6-1-0.9c-0.1-0.1-0.3-0.2-0.4-0.4c-0.4-0.3-0.8-0.6-1.2-0.9c-0.1-0.1-0.2-0.2-0.3-0.3
			c-0.5-0.4-1-0.7-1.5-1.1c0,0,0,0-0.1,0c-1.1-0.7-2.2-1.4-3.3-2c-0.1,0-0.2-0.1-0.3-0.1c-0.5-0.2-0.9-0.5-1.4-0.7
			c-0.2-0.1-0.3-0.1-0.5-0.2c-0.4-0.2-0.8-0.4-1.2-0.5c-0.2-0.1-0.4-0.1-0.6-0.2c-0.4-0.2-0.8-0.3-1.2-0.4c-0.2-0.1-0.4-0.1-0.6-0.2
			c-0.4-0.1-0.8-0.3-1.2-0.4c-0.2-0.1-0.4-0.1-0.6-0.2c-0.4-0.1-0.8-0.2-1.2-0.3c-0.2-0.1-0.4-0.1-0.6-0.2c-0.4-0.1-0.8-0.2-1.2-0.3
			c-0.2,0-0.4-0.1-0.6-0.1c-0.4-0.1-0.8-0.1-1.3-0.2c-0.2,0-0.4-0.1-0.6-0.1c-0.5-0.1-0.9-0.1-1.4-0.2c-0.1,0-0.3,0-0.4,0
			c-0.6-0.1-1.2-0.1-1.8-0.1c0,0,0,0-0.1,0c-0.6,0-1.3,0-1.9,0c0,0-0.1,0-0.1,0c-0.6,0-1.2,0-1.7,0.1c-0.2,0-0.3,0-0.5,0
			C89.9,4,89.5,4,89.1,4c-0.2,0-0.4,0.1-0.6,0.1c-0.4,0-0.8,0.1-1.2,0.2c-0.2,0-0.5,0.1-0.7,0.1c-0.4,0.1-0.8,0.1-1.1,0.2
			c-0.2,0-0.5,0.1-0.7,0.2C84.3,4.8,84,4.9,83.6,5c-0.2,0.1-0.5,0.1-0.7,0.2c-0.4,0.1-0.7,0.2-1.1,0.3c-0.2,0.1-0.5,0.1-0.7,0.2
			C80.7,5.9,80.4,6,80,6.1c-0.2,0.1-0.5,0.2-0.7,0.3c-0.1,0-0.2,0.1-0.3,0.1c-0.4,0.2-0.9,0.3-1.3,0.5c0,0-0.1,0-0.1,0
			c-0.5,0.2-1,0.4-1.5,0.7c-0.1,0.1-0.3,0.1-0.4,0.2c-0.5,0.3-1,0.5-1.5,0.8c-6.6,3.7-12.2,9.5-15.8,17.3L31.2,85.5c0,0,0,0,0,0
			C45.9,58.2,86.1,59,99.3,87.8l15.3,33.5l0,0.1l0,0c0,0.1,0.1,0.2,0.1,0.3l19.6,42.6c0,0,0,0.1,0.1,0.1c0.2,0.5,0.5,1,0.8,1.5
			c0.1,0.2,0.2,0.4,0.3,0.6c0.2,0.3,0.4,0.7,0.6,1c0.1,0.2,0.3,0.4,0.4,0.6c0.2,0.3,0.4,0.6,0.6,0.8c0.2,0.2,0.3,0.4,0.5,0.6
			c0.2,0.3,0.4,0.5,0.6,0.7c0.2,0.2,0.3,0.4,0.5,0.6c0.2,0.2,0.4,0.5,0.6,0.7c0.2,0.2,0.4,0.4,0.6,0.5c0.2,0.2,0.4,0.4,0.7,0.6
			c0.2,0.2,0.4,0.3,0.6,0.5c0.2,0.2,0.5,0.4,0.7,0.5c0.2,0.2,0.4,0.3,0.6,0.4c0.2,0.2,0.5,0.3,0.7,0.5c0.2,0.1,0.4,0.3,0.6,0.4
			c0.3,0.1,0.5,0.3,0.8,0.4c0.2,0.1,0.4,0.2,0.7,0.3c0.3,0.1,0.5,0.3,0.8,0.4c0.2,0.1,0.4,0.2,0.7,0.3c0.3,0.1,0.5,0.2,0.8,0.3
			c0.2,0.1,0.5,0.2,0.7,0.2c0.3,0.1,0.6,0.2,0.9,0.3c0.2,0.1,0.4,0.1,0.7,0.2c0.3,0.1,0.6,0.1,0.9,0.2c0.2,0,0.4,0.1,0.7,0.1
			c0.3,0.1,0.7,0.1,1,0.2c0.2,0,0.4,0.1,0.6,0.1c0.5,0.1,0.9,0.1,1.4,0.1c0.6,0,1.2,0.1,1.8,0.1c0,0,0,0,0.1,0c0.2,0,0.3,0,0.5,0
			c0.4,0,0.8,0,1.2,0c0.2,0,0.4,0,0.6-0.1c0.4,0,0.7-0.1,1.1-0.1c0.2,0,0.4-0.1,0.6-0.1c0.4-0.1,0.7-0.1,1.1-0.2
			c0.2,0,0.4-0.1,0.6-0.1c0.3-0.1,0.7-0.2,1-0.3c0.2-0.1,0.4-0.1,0.6-0.2c0.3-0.1,0.7-0.2,1-0.3c0.2-0.1,0.4-0.2,0.6-0.2
			c0.3-0.1,0.7-0.3,1-0.4c0.2-0.1,0.4-0.2,0.6-0.3c0.3-0.2,0.7-0.3,1-0.5c0.2-0.1,0.4-0.2,0.6-0.3c0.3-0.2,0.6-0.4,0.9-0.6
			c0.2-0.1,0.3-0.2,0.5-0.3c0.3-0.2,0.6-0.4,0.9-0.7c0.2-0.1,0.3-0.2,0.5-0.4c0.3-0.2,0.6-0.5,0.9-0.8c0.1-0.1,0.3-0.3,0.4-0.4
			c0.3-0.3,0.6-0.6,0.9-0.9c0.1-0.1,0.2-0.3,0.4-0.4c0.3-0.3,0.6-0.7,0.9-1c0.1-0.1,0.2-0.2,0.3-0.3c0.3-0.4,0.6-0.8,0.9-1.3
			c0.1-0.1,0.1-0.2,0.2-0.2c0.7-1.1,1.3-2.2,1.9-3.4l19.6-42.6c0-0.1,0.1-0.2,0.1-0.3l0-0.1l0,0L213,87.8
			c13.2-28.8,53.4-29.6,68.1-2.4c0,0,0,0,0,0c0,0,0,0,0,0L253.8,26z"/>
	</g>
</g>
<g>
	<path class="st2" d="M359.4,166.1V45.4H330c-2.8,0-5.2-0.5-7.2-1.5c-2-1-3.6-2.4-4.8-4c-1.2-1.7-2.1-3.5-2.7-5.6
		c-0.6-2-0.9-4-0.9-6c0-1.9,0.3-3.9,0.9-5.9c0.6-2,1.5-3.8,2.7-5.4c1.2-1.6,2.8-2.9,4.8-3.8c2-1,4.4-1.4,7.2-1.4h98.8
		c2.8,0,5.2,0.5,7.2,1.4c2,1,3.6,2.2,4.8,3.8c1.2,1.6,2.1,3.4,2.7,5.4c0.6,2,0.9,3.9,0.9,5.9c0,1.9-0.3,3.9-0.9,6
		c-0.6,2.1-1.5,3.9-2.8,5.6c-1.3,1.7-2.9,3-4.8,4c-1.9,1-4.3,1.5-7.1,1.5h-29.4v120.7H359.4z"/>
	<path class="st2" d="M512.8,166.1l-1.5-8.1c-3.7,3.5-8.1,6.2-13.1,8.3c-5,2-10.4,3.1-16.1,3.1h-4.2c-4,0-8.3-0.6-12.9-1.8
		c-4.6-1.2-8.9-3.3-12.8-6.2c-3.9-2.9-7.2-6.9-9.8-11.9c-2.6-5-3.9-11.3-3.9-18.8c0-7.3,1.3-13.4,3.8-18.3c2.6-4.9,6-8.8,10.3-11.7
		c4.3-2.9,9.3-5.1,15-6.3c5.7-1.3,11.7-1.9,18-1.9h19.8c-0.1-2.8-0.7-5.2-1.6-7c-1-1.9-2.2-3.3-3.8-4.4c-1.6-1.1-3.5-1.9-5.6-2.3
		c-2.1-0.4-4.3-0.7-6.6-0.7c-2.2,0-4.3,0.2-6.3,0.6c-2.1,0.4-4.2,0.9-6.5,1.5c-1.5,0.5-3,1.1-4.3,1.7c-1.3,0.6-2.9,1.3-4.7,2.1
		c-1.8,0.9-3.7,1.4-5.7,1.4c-2,0.1-3.9-0.2-5.9-0.8c-1.9-0.6-3.7-1.5-5.3-2.8c-1.6-1.3-2.9-2.9-3.7-4.8c-1.8-3.8-2.1-7.6-0.8-11.2
		c1.3-3.7,3.6-6.8,6.9-9.3c2.6-1.9,5.4-3.5,8.7-4.8c3.2-1.3,6.5-2.3,10-3.2c3.5-0.8,7-1.4,10.5-1.8c3.5-0.4,7-0.6,10.3-0.6
		c6.9,0,13.6,0.7,19.9,2.2c6.3,1.5,11.9,4.1,16.7,7.9c4.8,3.8,8.7,9,11.5,15.7c2.9,6.7,4.3,15.2,4.3,25.6v68.8H512.8z M505.3,120.6
		h-17.5c-3.7,0-6.5,0.9-8.5,2.6c-1.9,1.7-2.9,4.1-2.9,7.2c0,3.2,1,5.6,2.9,7.1c1.9,1.5,4.5,2.3,7.9,2.3h2.7c1.8,0,3.6-0.3,5.4-0.8
		c1.8-0.5,3.4-1.3,4.9-2.3c1.5-1,2.7-2.3,3.7-3.8c1-1.5,1.4-3.3,1.4-5.4V120.6z"/>
	<path class="st2" d="M634.1,166.1l-1.5-8.1c-3.7,3.5-8.1,6.2-13.1,8.3c-5,2-10.4,3.1-16.1,3.1h-4.2c-4,0-8.3-0.6-12.9-1.8
		c-4.6-1.2-8.9-3.3-12.8-6.2c-3.9-2.9-7.2-6.9-9.8-11.9c-2.6-5-3.9-11.3-3.9-18.8c0-7.3,1.3-13.4,3.8-18.3c2.6-4.9,6-8.8,10.3-11.7
		c4.3-2.9,9.3-5.1,15-6.3c5.7-1.3,11.7-1.9,18-1.9h19.8c-0.1-2.8-0.7-5.2-1.6-7c-1-1.9-2.2-3.3-3.8-4.4c-1.6-1.1-3.5-1.9-5.6-2.3
		c-2.1-0.4-4.3-0.7-6.6-0.7c-2.2,0-4.3,0.2-6.3,0.6c-2.1,0.4-4.2,0.9-6.5,1.5c-1.5,0.5-3,1.1-4.3,1.7c-1.3,0.6-2.9,1.3-4.7,2.1
		c-1.8,0.9-3.7,1.4-5.7,1.4c-2,0.1-3.9-0.2-5.9-0.8c-1.9-0.6-3.7-1.5-5.3-2.8c-1.6-1.3-2.9-2.9-3.7-4.8c-1.8-3.8-2.1-7.6-0.8-11.2
		c1.3-3.7,3.6-6.8,6.9-9.3c2.6-1.9,5.4-3.5,8.7-4.8c3.2-1.3,6.5-2.3,10-3.2c3.5-0.8,7-1.4,10.5-1.8c3.5-0.4,7-0.6,10.3-0.6
		c6.9,0,13.6,0.7,19.9,2.2c6.3,1.5,11.9,4.1,16.7,7.9c4.8,3.8,8.7,9,11.5,15.7c2.9,6.7,4.3,15.2,4.3,25.6v68.8H634.1z M626.6,120.6
		h-17.5c-3.7,0-6.5,0.9-8.5,2.6c-1.9,1.7-2.9,4.1-2.9,7.2c0,3.2,1,5.6,2.9,7.1c1.9,1.5,4.5,2.3,7.9,2.3h2.7c1.8,0,3.6-0.3,5.4-0.8
		c1.8-0.5,3.4-1.3,4.9-2.3c1.5-1,2.7-2.3,3.7-3.8c1-1.5,1.4-3.3,1.4-5.4V120.6z"/>
	<path class="st2" d="M683.9,22.9c0-6.7,2-11.5,5.9-14.6c3.9-3.1,8.6-4.6,13.9-4.6s10,1.5,13.9,4.6c3.9,3.1,5.9,7.9,5.9,14.6v143.2
		h-39.6V22.9z"/>
</g>
<g>
	<path class="st2" d="M871.7,159.1c-1.8,0-3.8-0.2-5.9-0.6c-2.2-0.4-4.3-1-6.3-1.7c-2-0.8-3.8-1.7-5.3-2.9c-1.5-1.1-2.5-2.5-3-4.2
		L832,80l-8.8,86h-36.1l16-135c0.3-2.9,1-5.5,2.4-7.8c1.3-2.3,3-4.2,4.9-5.8c1.9-1.6,4-2.8,6.2-3.7c2.2-0.9,4.4-1.5,6.6-1.7
		c2.3-0.1,4.7,0,7.4,0.4c2.6,0.4,5.1,1.2,7.4,2.4c2.4,1.2,4.5,2.9,6.4,5s3.3,4.7,4.2,7.9l23.1,87.5l23.1-87.5
		c0.9-3.2,2.3-5.8,4.1-7.9c1.8-2.1,4-3.8,6.4-5c2.4-1.2,4.9-2,7.5-2.4c2.6-0.4,5.1-0.5,7.4-0.4c2.2,0.3,4.4,0.8,6.6,1.7
		c2.2,0.9,4.3,2.1,6.2,3.7c1.9,1.6,3.5,3.5,4.9,5.8s2.1,4.9,2.4,7.8l16,135h-36.1l-8.6-86.5l-19.5,70.3c-0.5,1.7-1.5,3.1-3,4.2
		c-1.5,1.1-3.2,2.1-5.3,2.9c-2,0.8-4.1,1.3-6.3,1.7C875.5,158.9,873.5,159.1,871.7,159.1z"/>
	<path class="st2" d="M1041.5,166l-1.5-8c-3.7,3.4-8,6.2-13,8.2c-5,2-10.3,3.1-16,3.1h-4.2c-3.9,0-8.2-0.6-12.8-1.8
		c-4.6-1.2-8.8-3.3-12.7-6.2c-3.9-2.9-7.1-6.9-9.7-11.8c-2.6-5-3.9-11.2-3.9-18.7c0-7.3,1.3-13.3,3.8-18.1c2.5-4.8,6-8.7,10.2-11.7
		c4.3-2.9,9.2-5,14.9-6.3c5.7-1.3,11.6-1.9,17.9-1.9h19.7c-0.1-2.8-0.7-5.1-1.6-7c-1-1.8-2.2-3.3-3.8-4.4c-1.6-1.1-3.4-1.8-5.5-2.3
		c-2.1-0.4-4.3-0.7-6.6-0.7c-2.2,0-4.3,0.2-6.3,0.6c-2,0.4-4.2,0.9-6.5,1.5c-1.5,0.5-3,1.1-4.3,1.7c-1.3,0.6-2.9,1.3-4.7,2.1
		c-1.8,0.9-3.7,1.4-5.6,1.4c-2,0.1-3.9-0.2-5.8-0.8c-1.9-0.6-3.7-1.5-5.3-2.8c-1.6-1.3-2.8-2.9-3.7-4.8c-1.8-3.8-2-7.5-0.8-11.2
		c1.3-3.6,3.6-6.7,6.9-9.3c2.5-1.9,5.4-3.5,8.6-4.8c3.2-1.3,6.5-2.3,9.9-3.2c3.4-0.8,6.9-1.4,10.4-1.8c3.5-0.4,6.9-0.6,10.2-0.6
		c6.9,0,13.5,0.7,19.8,2.2c6.3,1.5,11.8,4.1,16.6,7.8c4.8,3.8,8.6,8.9,11.5,15.6c2.9,6.6,4.3,15.1,4.3,25.4V166H1041.5z
		 M1034.1,120.7h-17.4c-3.7,0-6.5,0.9-8.4,2.6c-1.9,1.7-2.9,4.1-2.9,7.2c0,3.2,1,5.5,2.9,7.1c1.9,1.5,4.5,2.3,7.8,2.3h2.7
		c1.8,0,3.6-0.3,5.3-0.8c1.8-0.5,3.4-1.3,4.9-2.3c1.5-1,2.7-2.3,3.6-3.8s1.4-3.3,1.4-5.3V120.7z"/>
	<path class="st2" d="M1087.7,23.7c0-3.2,0.5-6,1.6-8.3c1.1-2.4,2.5-4.3,4.3-5.9c1.8-1.6,3.8-2.8,6.1-3.6c2.3-0.8,4.7-1.2,7.3-1.2
		c5,0,9.4,1.6,13.2,4.8c3.8,3.2,5.7,8,5.7,14.3v66.5l33.8-37.2c1.7-1.8,3.6-3.2,5.8-4.4c2.2-1.1,4.5-1.9,6.9-2.2
		c2.4-0.3,4.7-0.2,7.2,0.4c2.4,0.6,4.6,1.6,6.7,3.2c2,1.5,3.6,3.4,4.8,5.7c1.1,2.3,1.8,4.7,2,7.2c0.2,2.5-0.1,4.9-0.9,7.4
		c-0.8,2.4-2,4.5-3.8,6.1l-25.2,24.3l42.2,65.5h-43.2l-24.8-40.9l-11.5,11.1V166h-38.2V23.7z"/>
	<path class="st2" d="M1266.5,169.2c-6.9,0-13.8-0.9-20.8-2.7c-7-1.8-13.3-4.7-19-8.8c-5.7-4.1-10.3-9.5-13.8-16.3
		c-3.5-6.8-5.3-15.2-5.3-25.1V99.5c0-10.2,1.7-18.7,5.1-25.4c3.4-6.7,7.7-12.2,13-16.2c5.3-4.1,11.1-7,17.6-8.7
		c6.4-1.7,12.7-2.6,18.8-2.6c6.6,0,13.1,0.8,19.4,2.4c6.3,1.6,11.9,4.6,16.9,9.1c5,4.5,8.9,10.7,11.9,18.6c3,8,4.5,18.2,4.5,30.8
		c0,1.7-0.1,3.6-0.3,5.9s-0.4,4.3-0.7,5.9h-68.4v0.2c0,3.3,0.7,6,2.1,8.2c1.4,2.2,3.2,3.9,5.3,5.3c2.2,1.4,4.5,2.4,7.1,3
		c2.5,0.6,5,0.9,7.3,0.9c4.7,0,8.3-0.2,10.9-0.6c2.5-0.4,5.1-1,7.6-1.9c1.4-0.5,2.8-1.1,4.3-1.6c1.5-0.6,3-1,4.7-1.2
		c3.3-0.4,6.3,0,9.1,1.1c2.7,1.1,4.7,3.2,6,6.1c2,4.7,2.1,9,0.1,12.9c-2,3.9-5.3,7.2-9.8,9.8c-1.5,0.9-3.5,1.8-5.8,2.7
		c-2.4,0.9-5,1.7-8,2.5c-3,0.8-6.2,1.4-9.6,1.8C1273.4,169,1270,169.2,1266.5,169.2z M1262.3,77.5c-2.2,0-4.2,0.3-6.2,0.9
		c-2,0.6-3.7,1.5-5.3,2.9c-1.5,1.3-2.8,3.1-3.8,5.2c-1,2.1-1.5,4.7-1.5,7.9h32.3c0.1-3.2-0.2-5.8-1.1-7.9c-0.8-2.1-1.9-3.8-3.3-5.2
		c-1.4-1.3-3.1-2.3-5.1-2.9C1266.4,77.8,1264.4,77.5,1262.3,77.5z"/>
	<path class="st2" d="M1342.7,81.9h-6.3c-6,0-10.3-1.6-12.9-4.8c-2.6-3.2-3.9-6.8-3.9-10.9c0-1.9,0.3-3.8,0.9-5.7
		c0.6-1.9,1.5-3.6,2.9-5.2c1.3-1.5,3.1-2.8,5.3-3.7c2.2-1,4.8-1.4,7.8-1.4h6.3V30.3c0-3.2,0.5-6,1.6-8.4c1.1-2.4,2.5-4.4,4.3-5.9
		c1.8-1.5,3.8-2.7,6-3.4c2.2-0.8,4.6-1.1,7-1.1c2.4,0,4.7,0.4,7,1.1c2.2,0.8,4.2,1.9,6,3.4c1.8,1.5,3.2,3.5,4.3,5.9
		c1.1,2.4,1.6,5.2,1.6,8.4v19.9h11.3c3.1,0,5.6,0.5,7.7,1.4c2.1,1,3.8,2.2,5.2,3.7c1.3,1.5,2.3,3.2,3,5.2c0.6,1.9,1,3.8,1,5.7
		c0,4.1-1.3,7.7-3.9,10.9c-2.6,3.2-6.9,4.8-12.9,4.8h-11.3v47.4c0,2.9,0.6,4.8,1.8,5.7c1.2,0.9,2.6,1.4,4.3,1.5
		c1.4,0.1,2.7,0,3.8-0.3c1.1-0.3,2.7-0.5,4.6-0.5c3.2,0,6,1,8.4,2.9c2.4,1.9,3.9,4.5,4.6,7.6c0.9,3.9,0.6,7.4-0.9,10.5
		c-1.5,3.1-3.5,5.5-6.2,7.3c-2.2,1.4-4.9,2.6-8.2,3.6c-3.3,1-6.6,1.5-9.9,1.5c-6.4,0-12-0.7-17-2.1c-5-1.4-9.2-3.6-12.6-6.7
		c-3.4-3.1-6-7.1-7.8-12c-1.8-5-2.7-11.1-2.7-18.3V81.9z"/>
	<path class="st2" d="M1416.3,199.6V65.7c0-3.2,0.5-6,1.6-8.3c1.1-2.4,2.5-4.3,4.3-5.9c1.8-1.6,3.8-2.8,6.1-3.6
		c2.3-0.8,4.7-1.2,7.3-1.2c3.7,0,7.2,0.9,10.4,2.7c3.2,1.8,5.7,4.4,7.4,7.8c3.7-3.4,8-6,12.9-7.8c4.9-1.8,9.8-2.7,14.6-2.7
		c6.2,0,12.2,0.9,17.9,2.6c5.7,1.7,10.6,4.6,14.9,8.7c4.3,4.1,7.6,9.5,10.1,16.2c2.5,6.8,3.7,15.2,3.7,25.2v17.2
		c0,10.1-1.2,18.5-3.7,25.2c-2.5,6.8-5.9,12.2-10.1,16.2c-4.3,4.1-9.2,7-14.9,8.7c-5.7,1.7-11.6,2.6-17.9,2.6c-4.8,0-9.4-0.7-13.8-2
		c-4.3-1.3-8.3-3.3-12-5.8v38.2H1416.3z M1488.1,96.6c0-3.2-0.5-5.9-1.6-8.1c-1.1-2.2-2.5-4-4.1-5.4c-1.7-1.4-3.4-2.4-5.3-3
		c-1.9-0.6-3.7-0.9-5.3-0.9c-1.7,0-3.5,0.3-5.4,0.9c-2,0.6-3.8,1.6-5.4,3c-1.7,1.4-3,3.2-4.1,5.4c-1.1,2.2-1.6,4.9-1.6,8.1v23.5
		c0.1,3.1,0.8,5.6,1.9,7.7c1.1,2.1,2.5,3.8,4.1,5.1c1.6,1.3,3.3,2.2,5.3,2.8c1.9,0.6,3.7,0.9,5.3,0.9c1.7,0,3.4-0.3,5.3-0.9
		c1.9-0.6,3.7-1.6,5.3-3c1.7-1.4,3-3.2,4.1-5.3c1.1-2.2,1.6-4.9,1.6-8.2V96.6z"/>
	<path class="st2" d="M1542.9,23.7c0-6.6,1.9-11.5,5.8-14.5c3.9-3.1,8.5-4.6,13.8-4.6s10,1.5,13.8,4.6c3.9,3.1,5.8,7.9,5.8,14.5V166
		h-39.3V23.7z"/>
	<path class="st2" d="M1671.1,166l-1.5-8c-3.7,3.4-8,6.2-13,8.2c-5,2-10.3,3.1-16,3.1h-4.2c-3.9,0-8.2-0.6-12.8-1.8
		c-4.6-1.2-8.8-3.3-12.7-6.2c-3.9-2.9-7.1-6.9-9.7-11.8c-2.6-5-3.9-11.2-3.9-18.7c0-7.3,1.3-13.3,3.8-18.1c2.5-4.8,6-8.7,10.2-11.7
		c4.3-2.9,9.2-5,14.9-6.3c5.7-1.3,11.6-1.9,17.9-1.9h19.7c-0.1-2.8-0.7-5.1-1.6-7c-1-1.8-2.2-3.3-3.8-4.4c-1.6-1.1-3.4-1.8-5.5-2.3
		c-2.1-0.4-4.3-0.7-6.6-0.7c-2.2,0-4.3,0.2-6.3,0.6c-2,0.4-4.2,0.9-6.5,1.5c-1.5,0.5-3,1.1-4.3,1.7c-1.3,0.6-2.9,1.3-4.7,2.1
		c-1.8,0.9-3.7,1.4-5.6,1.4c-2,0.1-3.9-0.2-5.8-0.8c-1.9-0.6-3.7-1.5-5.3-2.8c-1.6-1.3-2.8-2.9-3.7-4.8c-1.8-3.8-2-7.5-0.8-11.2
		c1.3-3.6,3.6-6.7,6.9-9.3c2.5-1.9,5.4-3.5,8.6-4.8c3.2-1.3,6.5-2.3,9.9-3.2c3.4-0.8,6.9-1.4,10.4-1.8c3.5-0.4,6.9-0.6,10.2-0.6
		c6.9,0,13.5,0.7,19.8,2.2c6.3,1.5,11.8,4.1,16.6,7.8c4.8,3.8,8.6,8.9,11.5,15.6c2.9,6.6,4.3,15.1,4.3,25.4V166H1671.1z
		 M1663.6,120.7h-17.4c-3.7,0-6.5,0.9-8.4,2.6c-1.9,1.7-2.9,4.1-2.9,7.2c0,3.2,1,5.5,2.9,7.1s4.5,2.3,7.8,2.3h2.7
		c1.8,0,3.6-0.3,5.3-0.8c1.8-0.5,3.4-1.3,4.9-2.3c1.5-1,2.7-2.3,3.6-3.8s1.4-3.3,1.4-5.3V120.7z"/>
	<path class="st2" d="M1754.7,116.5c0,4.1,0.6,7.4,1.7,10c1.1,2.6,2.6,4.6,4.4,6.1c1.8,1.5,3.8,2.5,6,3.1c2.2,0.6,4.4,0.9,6.6,0.9
		c3.2,0,5.9-0.2,8.1-0.7c2.2-0.4,4.6-1.2,7.2-2.4c1.4-0.6,2.9-1.4,4.4-2.2c1.5-0.8,3.2-1.4,5-1.6c2.8-0.5,5.5-0.3,8.1,0.8
		c2.6,1,4.7,2.9,6.4,5.5c1.3,2.2,2,4.4,2.2,6.8c0.2,2.4-0.1,4.6-1,6.9c-0.8,2.2-2.1,4.3-3.7,6.2c-1.7,1.9-3.6,3.6-5.9,5
		c-3.6,2.2-8,4.1-13.2,5.8c-5.2,1.7-11.1,2.6-17.6,2.6c-6.9,0-13.8-0.8-20.7-2.5c-6.9-1.7-13.2-4.5-18.7-8.6
		c-5.5-4.1-10-9.5-13.5-16.2c-3.4-6.7-5.2-15.3-5.2-25.6V99.5c0-10.1,1.7-18.5,5.2-25.2c3.4-6.7,7.9-12.2,13.3-16.2
		c5.4-4.1,11.5-7,18.2-8.8c6.7-1.8,13.4-2.7,20.1-2.7c6.9,0,12.8,0.8,17.8,2.3c5,1.5,9,3.2,12,5.2c2.3,1.4,4.3,3,5.9,4.9
		c1.7,1.8,2.9,3.9,3.7,6c0.8,2.2,1.2,4.4,1.1,6.6c-0.1,2.2-0.7,4.4-2,6.6c-1.8,3.2-4,5.2-6.8,6.1c-2.7,0.9-5.6,1.1-8.7,0.8
		c-1.8-0.3-3.4-0.7-4.9-1.3c-1.5-0.6-2.9-1.3-4.3-1.9c-1.9-0.9-3.8-1.5-5.5-1.9c-1.8-0.4-4.1-0.6-7.1-0.6c-2.2,0-4.3,0.3-6.5,0.9
		c-2.2,0.6-4.2,1.6-6,3.1c-1.8,1.5-3.3,3.5-4.5,6.1c-1.1,2.6-1.7,6-1.7,10V116.5z"/>
	<path class="st2" d="M1884.6,169.2c-6.9,0-13.8-0.9-20.8-2.7c-7-1.8-13.3-4.7-19-8.8c-5.7-4.1-10.3-9.5-13.8-16.3
		c-3.5-6.8-5.3-15.2-5.3-25.1V99.5c0-10.2,1.7-18.7,5.1-25.4c3.4-6.7,7.7-12.2,13-16.2c5.3-4.1,11.1-7,17.6-8.7
		c6.4-1.7,12.7-2.6,18.8-2.6c6.6,0,13.1,0.8,19.4,2.4c6.3,1.6,11.9,4.6,16.9,9.1c5,4.5,8.9,10.7,11.9,18.6c3,8,4.5,18.2,4.5,30.8
		c0,1.7-0.1,3.6-0.3,5.9s-0.4,4.3-0.7,5.9h-68.4v0.2c0,3.3,0.7,6,2.1,8.2c1.4,2.2,3.2,3.9,5.3,5.3c2.2,1.4,4.5,2.4,7.1,3
		c2.5,0.6,5,0.9,7.3,0.9c4.7,0,8.3-0.2,10.9-0.6c2.5-0.4,5.1-1,7.6-1.9c1.4-0.5,2.8-1.1,4.3-1.6c1.5-0.6,3-1,4.7-1.2
		c3.3-0.4,6.3,0,9.1,1.1c2.7,1.1,4.7,3.2,6,6.1c2,4.7,2.1,9,0.1,12.9c-2,3.9-5.3,7.2-9.8,9.8c-1.5,0.9-3.5,1.8-5.8,2.7
		c-2.4,0.9-5,1.7-8,2.5c-3,0.8-6.2,1.4-9.6,1.8C1891.4,169,1888,169.2,1884.6,169.2z M1880.4,77.5c-2.2,0-4.2,0.3-6.2,0.9
		c-2,0.6-3.7,1.5-5.3,2.9c-1.5,1.3-2.8,3.1-3.8,5.2c-1,2.1-1.5,4.7-1.5,7.9h32.3c0.1-3.2-0.2-5.8-1.1-7.9c-0.8-2.1-1.9-3.8-3.3-5.2
		c-1.4-1.3-3.1-2.3-5.1-2.9C1884.4,77.8,1882.4,77.5,1880.4,77.5z"/>
</g>
</svg>
